<svg width="16" height="16" viewBox="0 0 16 16" fill="none" xmlns="http://www.w3.org/2000/svg">
<g id="bug" clip-path="url(#clip0_660_892)">
<path id="Vector" d="M13.7058 12H12.7985C12.8433 11.7392 12.8718 11.4728 12.8718 11.2V10.4H14.4991C14.9483 10.4 15.3128 10.0416 15.3128 9.6C15.3128 9.1584 14.9483 8.8 14.4991 8.8H12.7985C12.7513 8.5248 12.6806 8.2576 12.587 8H12.8921C13.7896 8 14.5195 7.2824 14.5195 6.4V4.8C14.5195 4.3584 14.155 4 13.7058 4C13.2566 4 12.8921 4.3584 12.8921 4.8V6.4H11.6187C11.5007 6.2712 11.3754 6.148 11.2444 6.032V4.8C11.2444 4.0024 10.9352 3.2808 10.4421 2.72L11.006 2.1656C11.159 2.016 11.2444 1.812 11.2444 1.6V0.8C11.2444 0.3584 10.8799 0 10.4307 0C9.98157 0 9.61704 0.3584 9.61704 0.8V1.2688L9.07919 1.7976C8.73663 1.6776 8.37373 1.6 7.98967 1.6C7.60561 1.6 7.2427 1.6776 6.90014 1.7976L6.3623 1.2688V0.8C6.3623 0.3584 5.99777 0 5.54861 0C5.09946 0 4.73493 0.3584 4.73493 0.8V1.6C4.73493 1.812 4.82036 2.016 4.97334 2.1656L5.53722 2.72C5.04413 3.2808 4.73493 4.0024 4.73493 4.8V6.032C4.60392 6.148 4.47862 6.2712 4.36063 6.4H3.10756V4.8C3.10756 4.3584 2.74303 4 2.29387 4C1.84472 4 1.48019 4.3584 1.48019 4.8V6.4C1.48019 7.2824 2.21006 8 3.10756 8H3.39235C3.29959 8.2576 3.22798 8.5248 3.18079 8.8H1.48019C1.03103 8.8 0.666504 9.1584 0.666504 9.6C0.666504 10.0416 1.03103 10.4 1.48019 10.4H3.10756V11.2C3.10756 11.4728 3.13604 11.7392 3.18079 12H2.29387C1.39638 12 0.666504 12.7176 0.666504 13.6V15.2C0.666504 15.6416 1.03103 16 1.48019 16C1.92934 16 2.29387 15.6416 2.29387 15.2V13.6H3.76827C4.4835 14.8112 5.72193 15.6832 7.17598 15.9256V8C7.17598 7.5584 7.54051 7.2 7.98967 7.2C8.43882 7.2 8.80335 7.5584 8.80335 8V15.9256C10.2574 15.6832 11.4958 14.8112 12.2111 13.6H13.7058V15.2C13.7058 15.6416 14.0703 16 14.5195 16C14.9686 16 15.3332 15.6416 15.3332 15.2V13.6C15.3332 12.7176 14.6033 12 13.7058 12ZM9.61704 5.08C9.36968 4.9936 9.11499 4.9256 8.85136 4.8792C8.82125 4.8736 8.79115 4.8704 8.76104 4.8656C8.5088 4.8264 8.25249 4.8 7.98967 4.8C7.72685 4.8 7.47054 4.8264 7.21829 4.8656C7.18819 4.8704 7.15808 4.8736 7.12797 4.8792C6.86434 4.9256 6.60966 4.9936 6.3623 5.08V4.8C6.3623 3.9176 7.09217 3.2 7.98967 3.2C8.88716 3.2 9.61704 3.9176 9.61704 4.8V5.08Z" fill="#0E9F6E"/>
</g>
<defs>
<clipPath id="clip0_660_892">
<rect width="16" height="16" fill="white"/>
</clipPath>
</defs>
</svg>
