<svg width="119" height="32" viewBox="0 0 119 32" fill="none" xmlns="http://www.w3.org/2000/svg">
<g id="Group 2">
<g id="Unicore">
<path d="M37.2912 7.8905H41.3097V17.3946C41.3097 18.4577 41.3735 20.3926 43.3509 20.3926C45.3495 20.3926 45.3495 18.6491 45.3495 17.3946V7.8905H49.368V17.3946C49.368 20.0311 48.794 21.2005 47.7946 22.2211C46.7741 23.2629 45.3495 23.9221 43.3934 23.9221C42.2452 23.9221 40.1616 23.6457 38.8646 22.2424C37.5676 20.8178 37.2912 19.7122 37.2912 17.3946V7.8905Z" fill="#FEFEFE"/>
<path d="M52.0309 23.6244V11.824H55.3265V13.0784H55.3691C55.7305 12.5044 56.4747 11.42 58.5796 11.42C59.7065 11.42 60.961 11.8878 61.5988 12.4406C62.2367 12.9934 62.9596 13.9289 62.9596 16.2465V23.6244H59.4301V17.182C59.4301 16.3528 59.4301 14.7369 57.5803 14.7369C55.5604 14.7369 55.5604 16.4804 55.5604 17.2033V23.6244H52.0309Z" fill="#FEFEFE"/>
<path d="M68.9945 11.824V23.6244H65.465V11.824H68.9945ZM68.9945 7.8905V10.5695H65.465V7.8905H68.9945Z" fill="#FEFEFE"/>
<path d="M79.8835 19.1381H83.4768C82.8389 21.8171 80.4789 24.0071 77.2895 24.0071C73.7175 24.0071 70.9747 21.2005 70.9747 17.6923C70.9747 14.2266 73.675 11.42 77.2045 11.42C80.33 11.42 82.8602 13.4824 83.4555 16.374H79.8835C79.5008 15.5661 78.7991 14.7156 77.3321 14.7156C75.6524 14.6306 74.5255 16.0126 74.5255 17.7136C74.5255 19.4358 75.6524 20.7115 77.3321 20.7115C78.7991 20.7115 79.5008 19.861 79.8835 19.1381Z" fill="#FEFEFE"/>
<path d="M84.8661 17.7136C84.8661 14.8219 86.9286 11.4413 91.2235 11.4413C95.5184 11.4413 97.5808 14.8219 97.5808 17.7136C97.5808 20.6052 95.5184 23.9859 91.2235 23.9859C86.9286 23.9859 84.8661 20.6052 84.8661 17.7136ZM88.3956 17.7136C88.3956 19.4358 89.6926 20.6902 91.2235 20.6902C92.7543 20.6902 94.0513 19.4358 94.0513 17.7136C94.0513 15.9913 92.7543 14.7369 91.2235 14.7369C89.6926 14.7369 88.3956 15.9913 88.3956 17.7136Z" fill="#FEFEFE"/>
<path d="M99.5585 23.6244V11.824H102.875V13.0784H102.918C103.216 12.5044 103.832 11.42 105.873 11.42V14.9708C104.236 15.0133 103.088 15.3535 103.088 17.1395V23.6244H99.5585Z" fill="#FEFEFE"/>
<path d="M114.981 19.9248H118.596C118.022 21.2431 117.193 22.2636 116.193 22.944C115.215 23.6457 114.046 24.0071 112.834 24.0071C109.453 24.0071 106.583 21.2643 106.583 17.7561C106.583 14.4605 109.177 11.42 112.77 11.42C116.363 11.42 119 14.2691 119 17.8624C119 18.3302 118.957 18.5215 118.915 18.7979H110.07C110.283 20.2012 111.452 21.0304 112.834 21.0304C113.918 21.0304 114.492 20.5414 114.981 19.9248ZM110.112 16.4166H115.47C115.322 15.7149 114.62 14.3967 112.791 14.3967C110.963 14.3967 110.261 15.7149 110.112 16.4166Z" fill="#FEFEFE"/>
</g>
<g id="Group 1">
<path id="Vector (Stroke)" fill-rule="evenodd" clip-rule="evenodd" d="M13.6219 28.3148L13.6256 28.317C13.6676 28.3419 13.6884 28.3478 13.6904 28.3483C13.6922 28.3488 13.6928 28.3489 13.6931 28.3489C13.6934 28.349 13.6961 28.3494 13.7022 28.3494C13.7082 28.3494 13.7109 28.349 13.7112 28.3489C13.7115 28.3489 13.7121 28.3488 13.7139 28.3483C13.7157 28.3478 13.7366 28.342 13.7788 28.317L13.7825 28.3148L24.4361 22.0412C24.4369 22.0407 24.4376 22.0402 24.4384 22.0398C24.5134 21.995 24.5289 21.9681 24.5414 21.9461L24.5422 21.9446C24.5505 21.9303 24.5694 21.8974 24.5694 21.79V9.39427C24.5694 9.28691 24.5505 9.25404 24.5422 9.23967L24.5414 9.23815C24.5289 9.21618 24.5133 9.18931 24.4383 9.14447C24.4376 9.14403 24.4368 9.14359 24.4361 9.14314L13.7825 2.86947L13.7788 2.8673C13.7368 2.84242 13.716 2.83655 13.714 2.83598C13.7121 2.83547 13.7115 2.83539 13.7112 2.83535C13.7109 2.83531 13.7082 2.83494 13.7022 2.83494C13.6961 2.83494 13.6934 2.83531 13.6932 2.83535C13.6929 2.83539 13.6923 2.83546 13.6905 2.83597C13.6884 2.83654 13.6675 2.84242 13.6256 2.8673L13.6219 2.86947L2.96832 9.14314C2.96755 9.1436 2.96678 9.14406 2.96602 9.14451C2.89103 9.18933 2.87553 9.21619 2.86302 9.23815C2.86274 9.23863 2.86245 9.23914 2.86215 9.23967C2.85386 9.25405 2.83494 9.28691 2.83494 9.39427V21.79C2.83494 21.8974 2.85387 21.9303 2.86215 21.9446L2.86302 21.9461C2.87552 21.9681 2.89101 21.9949 2.96591 22.0397C2.96671 22.0402 2.96751 22.0407 2.96832 22.0412L13.6219 28.3148ZM1.52247 24.4797C1.04035 24.1938 0.666079 23.817 0.399647 23.3492C0.133216 22.8815 0 22.3617 0 21.79V9.39427C0 8.82256 0.133216 8.30282 0.399647 7.83505C0.666079 7.36729 1.04035 6.99048 1.52247 6.70462L12.1797 0.428784C12.6618 0.142928 13.1693 0 13.7022 0C14.2351 0 14.7425 0.142928 15.2247 0.428784L25.8819 6.70462C26.364 6.99048 26.7383 7.36729 27.0047 7.83505C27.2712 8.30282 27.4044 8.82256 27.4044 9.39427V21.79C27.4044 22.3617 27.2712 22.8815 27.0047 23.3492C26.7383 23.817 26.364 24.1938 25.8819 24.4797L15.2247 30.7555C14.7425 31.0414 14.2351 31.1843 13.7022 31.1843C13.1693 31.1843 12.6618 31.0414 12.1797 30.7555L1.52247 24.4797Z" fill="#4B78ED"/>
<path id="Rectangle 368" d="M22.42 11.2689C22.42 11.0862 22.2214 10.9726 22.0639 11.0652L14.8535 15.3067C14.5649 15.4765 14.3877 15.7863 14.3877 16.1212L14.3877 25.1003C14.3877 25.2807 14.5817 25.3946 14.7391 25.3066L21.936 21.2848C22.2348 21.1178 22.42 20.8022 22.42 20.4599L22.42 11.2689Z" fill="#4B78ED"/>
</g>
</g>
</svg>
