<svg width="16" height="17" viewBox="0 0 16 17" fill="none" xmlns="http://www.w3.org/2000/svg">
<g id="column">
<g id="Vector">
<path d="M1.6 1.7843C1.17565 1.7843 0.768687 1.95287 0.468629 2.25293C0.168571 2.55299 0 2.95996 0 3.3843V12.9843C0 13.4086 0.168571 13.8156 0.468629 14.1157C0.768687 14.4157 1.17565 14.5843 1.6 14.5843H4V1.7843H1.6Z" fill="#A2BBFB"/>
<path d="M14.4 1.7843H12V14.5843H14.4C14.8243 14.5843 15.2313 14.4157 15.5314 14.1157C15.8314 13.8156 16 13.4086 16 12.9843V3.3843C16 2.95996 15.8314 2.55299 15.5314 2.25293C15.2313 1.95287 14.8243 1.7843 14.4 1.7843Z" fill="#A2BBFB"/>
<path d="M10.4 1.7843H5.6V14.5843H10.4V1.7843Z" fill="#A2BBFB"/>
</g>
</g>
</svg>
