<svg width="177" height="47" viewBox="0 0 177 47" fill="none" xmlns="http://www.w3.org/2000/svg">
<g id="Group 2">
<g id="Unicore">
<path d="M55.2287 11.686H61.1802V25.7617C61.1802 27.3362 61.2747 30.2017 64.2032 30.2017C67.1632 30.2017 67.1632 27.6196 67.1632 25.7617V11.686H73.1146V25.7617C73.1146 29.6664 72.2644 31.3983 70.7844 32.9098C69.2729 34.4528 67.1632 35.4289 64.2661 35.4289C62.5657 35.4289 59.4798 35.0196 57.5589 32.9413C55.6381 30.8315 55.2287 29.194 55.2287 25.7617V11.686Z" fill="#2A2B2C"/>
<path d="M77.0584 34.9881V17.5115H81.9393V19.3694H82.0022C82.5376 18.5192 83.6397 16.9132 86.7571 16.9132C88.4261 16.9132 90.2839 17.606 91.2286 18.4247C92.1733 19.2434 93.2439 20.629 93.2439 24.0613V34.9881H88.0167V25.4468C88.0167 24.2187 88.0167 21.8256 85.2771 21.8256C82.2856 21.8256 82.2856 24.4077 82.2856 25.4783V34.9881H77.0584Z" fill="#2A2B2C"/>
<path d="M102.182 17.5115V34.9881H96.9545V17.5115H102.182ZM102.182 11.686V15.6537H96.9545V11.686H102.182Z" fill="#2A2B2C"/>
<path d="M118.308 28.3438H123.63C122.685 32.3115 119.19 35.5549 114.467 35.5549C109.177 35.5549 105.114 31.3983 105.114 26.2026C105.114 21.0698 109.114 16.9132 114.341 16.9132C118.97 16.9132 122.717 19.9677 123.599 24.2502H118.308C117.742 23.0536 116.702 21.7941 114.53 21.7941C112.042 21.6681 110.373 23.7149 110.373 26.2341C110.373 28.7847 112.042 30.674 114.53 30.674C116.702 30.674 117.742 29.4145 118.308 28.3438Z" fill="#2A2B2C"/>
<path d="M125.688 26.2341C125.688 21.9515 128.742 16.9447 135.103 16.9447C141.464 16.9447 144.518 21.9515 144.518 26.2341C144.518 30.5166 141.464 35.5234 135.103 35.5234C128.742 35.5234 125.688 30.5166 125.688 26.2341ZM130.915 26.2341C130.915 28.7847 132.836 30.6426 135.103 30.6426C137.37 30.6426 139.291 28.7847 139.291 26.2341C139.291 23.6834 137.37 21.8256 135.103 21.8256C132.836 21.8256 130.915 23.6834 130.915 26.2341Z" fill="#2A2B2C"/>
<path d="M147.447 34.9881V17.5115H152.36V19.3694H152.423C152.863 18.5192 153.777 16.9132 156.8 16.9132V22.1719C154.375 22.2349 152.675 22.7387 152.675 25.3838V34.9881H147.447Z" fill="#2A2B2C"/>
<path d="M170.289 29.5089H175.642C174.792 31.4613 173.564 32.9728 172.084 33.9804C170.635 35.0196 168.903 35.5549 167.108 35.5549C162.102 35.5549 157.851 31.4928 157.851 26.297C157.851 21.4162 161.692 16.9132 167.014 16.9132C172.336 16.9132 176.24 21.1328 176.24 26.4545C176.24 27.1472 176.177 27.4306 176.114 27.84H163.015C163.33 29.9183 165.062 31.1464 167.108 31.1464C168.714 31.1464 169.565 30.4221 170.289 29.5089ZM163.078 24.3132H171.013C170.793 23.2741 169.754 21.3217 167.045 21.3217C164.337 21.3217 163.298 23.2741 163.078 24.3132Z" fill="#2A2B2C"/>
</g>
<g id="Group 1">
<path id="Vector (Stroke)" fill-rule="evenodd" clip-rule="evenodd" d="M20.1742 41.9346L20.1796 41.9378C20.2418 41.9747 20.2727 41.9833 20.2757 41.9842C20.2783 41.9849 20.2792 41.985 20.2797 41.9851C20.2801 41.9852 20.2841 41.9857 20.2931 41.9857C20.302 41.9857 20.3059 41.9852 20.3065 41.9851C20.3069 41.9851 20.3078 41.985 20.3105 41.9842C20.3132 41.9834 20.344 41.9749 20.4066 41.9378L20.412 41.9346L36.1901 32.6432C36.1913 32.6425 36.1924 32.6418 36.1936 32.6411C36.3046 32.5748 36.3275 32.535 36.346 32.5025L36.3473 32.5003C36.3596 32.479 36.3876 32.4303 36.3876 32.2713V13.913C36.3876 13.754 36.3596 13.7053 36.3473 13.684L36.346 13.6818C36.3275 13.6493 36.3045 13.6095 36.1934 13.5431C36.1923 13.5424 36.1912 13.5418 36.1901 13.5411L20.412 4.24972L20.4066 4.24651C20.3444 4.20965 20.3135 4.20097 20.3105 4.20012C20.3078 4.19936 20.3069 4.19925 20.3065 4.19919C20.306 4.19912 20.302 4.19857 20.2931 4.19857C20.2841 4.19857 20.2801 4.19913 20.2797 4.19919C20.2793 4.19925 20.2784 4.19935 20.2757 4.20011C20.2727 4.20095 20.2418 4.20965 20.1796 4.24651L20.1742 4.24972L4.39611 13.5411C4.39497 13.5418 4.39384 13.5424 4.39271 13.5431C4.28164 13.6095 4.25869 13.6493 4.24016 13.6818C4.23975 13.6825 4.23932 13.6833 4.23887 13.6841C4.22661 13.7053 4.19857 13.754 4.19857 13.913V32.2713C4.19857 32.4303 4.22661 32.479 4.23887 32.5003L4.24016 32.5025C4.25868 32.535 4.28162 32.5748 4.39255 32.6411C4.39372 32.6418 4.39491 32.6425 4.39611 32.6432L20.1742 41.9346ZM2.25479 36.2547C1.54077 35.8313 0.98647 35.2733 0.591882 34.5805C0.197294 33.8877 0 33.118 0 32.2713V13.913C0 13.0663 0.197294 12.2966 0.591882 11.6038C0.98647 10.911 1.54077 10.353 2.25479 9.92962L18.0383 0.635034C18.7523 0.211678 19.5039 0 20.2931 0C21.0823 0 21.8339 0.211678 22.5479 0.635034L38.3314 9.92962C39.0454 10.353 39.5997 10.911 39.9943 11.6038C40.3889 12.2966 40.5862 13.0663 40.5862 13.913V32.2713C40.5862 33.118 40.3889 33.8877 39.9943 34.5805C39.5997 35.2733 39.0454 35.8313 38.3314 36.2547L22.5479 45.5493C21.8339 45.9726 21.0823 46.1843 20.2931 46.1843C19.5039 46.1843 18.7523 45.9726 18.0383 45.5493L2.25479 36.2547Z" fill="#4B78ED"/>
<path id="Rectangle 368" d="M33.2042 16.6893C33.2042 16.4187 32.9102 16.2505 32.6769 16.3877L21.9982 22.6693C21.5707 22.9208 21.3083 23.3797 21.3082 23.8756L21.3083 37.1738C21.3083 37.441 21.5956 37.6096 21.8288 37.4793L32.4874 31.523C32.93 31.2757 33.2042 30.8083 33.2042 30.3013L33.2042 16.6893Z" fill="#4B78ED"/>
</g>
</g>
</svg>
