<svg width="119" height="32" viewBox="0 0 119 32" fill="none" xmlns="http://www.w3.org/2000/svg">
<path d="M37.2913 7.89056H41.3098V17.3947C41.3098 18.4578 41.3736 20.3926 43.3509 20.3926C45.3496 20.3926 45.3496 18.6491 45.3496 17.3947V7.89056H49.3681V17.3947C49.3681 20.0312 48.794 21.2006 47.7947 22.2212C46.7741 23.263 45.3496 23.9221 43.3935 23.9221C42.2453 23.9221 40.1616 23.6457 38.8646 22.2424C37.5677 20.8179 37.2913 19.7122 37.2913 17.3947V7.89056Z" fill="#FEFEFE"/>
<path d="M52.031 23.6245V11.824H55.3266V13.0785H55.3691C55.7306 12.5044 56.4748 11.4201 58.5797 11.4201C59.7066 11.4201 60.961 11.8878 61.5989 12.4406C62.2368 12.9934 62.9597 13.929 62.9597 16.2465V23.6245H59.4302V17.1821C59.4302 16.3528 59.4302 14.7369 57.5804 14.7369C55.5605 14.7369 55.5605 16.4804 55.5605 17.2033V23.6245H52.031Z" fill="#FEFEFE"/>
<path d="M68.9946 11.824V23.6245H65.4651V11.824H68.9946ZM68.9946 7.89056V10.5696H65.4651V7.89056H68.9946Z" fill="#FEFEFE"/>
<path d="M79.8836 19.1382H83.4769C82.839 21.8172 80.4789 24.0072 77.2896 24.0072C73.7176 24.0072 70.9748 21.2006 70.9748 17.6924C70.9748 14.2266 73.6751 11.4201 77.2046 11.4201C80.3301 11.4201 82.8603 13.4825 83.4556 16.3741H79.8836C79.5009 15.5662 78.7992 14.7157 77.3321 14.7157C75.6524 14.6306 74.5255 16.0127 74.5255 17.7136C74.5255 19.4358 75.6524 20.7116 77.3321 20.7116C78.7992 20.7116 79.5009 19.8611 79.8836 19.1382Z" fill="#FEFEFE"/>
<path d="M84.8662 17.7136C84.8662 14.822 86.9286 11.4413 91.2235 11.4413C95.5185 11.4413 97.5809 14.822 97.5809 17.7136C97.5809 20.6053 95.5185 23.9859 91.2235 23.9859C86.9286 23.9859 84.8662 20.6053 84.8662 17.7136ZM88.3957 17.7136C88.3957 19.4358 89.6927 20.6903 91.2235 20.6903C92.7544 20.6903 94.0514 19.4358 94.0514 17.7136C94.0514 15.9914 92.7544 14.7369 91.2235 14.7369C89.6927 14.7369 88.3957 15.9914 88.3957 17.7136Z" fill="#FEFEFE"/>
<path d="M99.5586 23.6245V11.824H102.875V13.0785H102.918C103.216 12.5044 103.832 11.4201 105.873 11.4201V14.9708C104.236 15.0133 103.088 15.3535 103.088 17.1395V23.6245H99.5586Z" fill="#FEFEFE"/>
<path d="M114.982 19.9249H118.596C118.022 21.2431 117.193 22.2637 116.193 22.9441C115.215 23.6457 114.046 24.0072 112.834 24.0072C109.453 24.0072 106.583 21.2644 106.583 17.7561C106.583 14.4605 109.177 11.4201 112.77 11.4201C116.364 11.4201 119 14.2692 119 17.8625C119 18.3302 118.958 18.5216 118.915 18.798H110.07C110.283 20.2013 111.452 21.0305 112.834 21.0305C113.918 21.0305 114.492 20.5415 114.982 19.9249ZM110.113 16.4166H115.471C115.322 15.715 114.62 14.3967 112.792 14.3967C110.963 14.3967 110.261 15.715 110.113 16.4166Z" fill="#FEFEFE"/>
<path fill-rule="evenodd" clip-rule="evenodd" d="M13.6219 28.3148L13.6256 28.317C13.6676 28.3419 13.6884 28.3478 13.6904 28.3483C13.6922 28.3488 13.6928 28.3489 13.6931 28.3489C13.6934 28.349 13.6961 28.3494 13.7022 28.3494C13.7082 28.3494 13.7109 28.349 13.7112 28.3489C13.7115 28.3489 13.7121 28.3488 13.7139 28.3483C13.7157 28.3478 13.7366 28.342 13.7788 28.317L13.7825 28.3148L24.4361 22.0412C24.4369 22.0407 24.4376 22.0402 24.4384 22.0398C24.5134 21.995 24.5289 21.9681 24.5414 21.9461L24.5422 21.9446C24.5505 21.9303 24.5694 21.8974 24.5694 21.79V9.39427C24.5694 9.28691 24.5505 9.25404 24.5422 9.23967L24.5414 9.23815C24.5289 9.21618 24.5133 9.18931 24.4383 9.14447C24.4376 9.14403 24.4368 9.14359 24.4361 9.14314L13.7825 2.86947L13.7788 2.8673C13.7368 2.84242 13.716 2.83655 13.714 2.83598C13.7121 2.83547 13.7115 2.83539 13.7112 2.83535C13.7109 2.83531 13.7082 2.83494 13.7022 2.83494C13.6961 2.83494 13.6934 2.83531 13.6932 2.83535C13.6929 2.83539 13.6923 2.83546 13.6905 2.83597C13.6884 2.83654 13.6675 2.84242 13.6256 2.8673L13.6219 2.86947L2.96832 9.14314C2.96755 9.1436 2.96678 9.14406 2.96602 9.14451C2.89103 9.18933 2.87553 9.21619 2.86302 9.23815C2.86274 9.23863 2.86245 9.23914 2.86215 9.23967C2.85386 9.25405 2.83494 9.28691 2.83494 9.39427V21.79C2.83494 21.8974 2.85387 21.9303 2.86215 21.9446L2.86302 21.9461C2.87552 21.9681 2.89101 21.9949 2.96591 22.0397C2.96671 22.0402 2.96751 22.0407 2.96832 22.0412L13.6219 28.3148ZM1.52247 24.4797C1.04035 24.1938 0.666079 23.817 0.399647 23.3492C0.133216 22.8815 0 22.3617 0 21.79V9.39427C0 8.82256 0.133216 8.30282 0.399647 7.83505C0.666079 7.36729 1.04035 6.99048 1.52247 6.70462L12.1797 0.428784C12.6618 0.142928 13.1693 0 13.7022 0C14.2351 0 14.7425 0.142928 15.2247 0.428784L25.8819 6.70462C26.364 6.99048 26.7383 7.36729 27.0047 7.83505C27.2712 8.30282 27.4044 8.82256 27.4044 9.39427V21.79C27.4044 22.3617 27.2712 22.8815 27.0047 23.3492C26.7383 23.817 26.364 24.1938 25.8819 24.4797L15.2247 30.7555C14.7425 31.0414 14.2351 31.1843 13.7022 31.1843C13.1693 31.1843 12.6618 31.0414 12.1797 30.7555L1.52247 24.4797Z" fill="#FEFEFE"/>
<path d="M22.42 11.2688C22.42 11.0861 22.2214 10.9726 22.0639 11.0652L14.8535 15.3066C14.5649 15.4764 14.3877 15.7863 14.3877 16.1212L14.3877 25.1003C14.3877 25.2807 14.5817 25.3945 14.7391 25.3065L21.936 21.2848C22.2348 21.1178 22.42 20.8022 22.42 20.4599L22.42 11.2688Z" fill="#FEFEFE"/>
</svg>
