<svg width="174" height="35" viewBox="0 0 174 35" fill="none" xmlns="http://www.w3.org/2000/svg">
<g id="Unicore">
<path d="M0.924988 0.699951H9.42999V20.815C9.42999 23.065 9.56499 27.16 13.75 27.16C17.98 27.16 17.98 23.47 17.98 20.815V0.699951H26.485V20.815C26.485 26.395 25.27 28.87 23.155 31.03C20.995 33.235 17.98 34.63 13.84 34.63C11.41 34.63 6.99999 34.045 4.25499 31.075C1.50999 28.06 0.924988 25.72 0.924988 20.815V0.699951Z" fill="#FEFEFE"/>
<path d="M32.1209 34V9.02495H39.0959V11.68H39.1859C39.9509 10.465 41.5259 8.16995 45.9809 8.16995C48.3659 8.16995 51.0209 9.15995 52.3709 10.33C53.7209 11.5 55.2509 13.4799 55.2509 18.385V34H47.7809V20.365C47.7809 18.61 47.7809 15.19 43.8659 15.19C39.5909 15.19 39.5909 18.8799 39.5909 20.41V34H32.1209Z" fill="#FEFEFE"/>
<path d="M68.0235 9.02495V34H60.5535V9.02495H68.0235ZM68.0235 0.699951V6.36995H60.5535V0.699951H68.0235Z" fill="#FEFEFE"/>
<path d="M91.0695 24.505H98.6745C97.3245 30.175 92.3295 34.81 85.5795 34.81C78.0195 34.81 72.2145 28.8699 72.2145 21.445C72.2145 14.1099 77.9295 8.16995 85.3995 8.16995C92.0145 8.16995 97.3695 12.535 98.6295 18.655H91.0695C90.2595 16.945 88.7745 15.1449 85.6695 15.1449C82.1145 14.965 79.7295 17.89 79.7295 21.49C79.7295 25.135 82.1145 27.835 85.6695 27.835C88.7745 27.835 90.2595 26.035 91.0695 24.505Z" fill="#FEFEFE"/>
<path d="M101.615 21.49C101.615 15.3699 105.98 8.21495 115.07 8.21495C124.16 8.21495 128.525 15.3699 128.525 21.49C128.525 27.61 124.16 34.7649 115.07 34.7649C105.98 34.7649 101.615 27.61 101.615 21.49ZM109.085 21.49C109.085 25.135 111.83 27.79 115.07 27.79C118.31 27.79 121.055 25.135 121.055 21.49C121.055 17.8449 118.31 15.19 115.07 15.19C111.83 15.19 109.085 17.8449 109.085 21.49Z" fill="#FEFEFE"/>
<path d="M132.711 34V9.02495H139.731V11.68H139.821C140.451 10.465 141.756 8.16995 146.076 8.16995V15.685C142.611 15.775 140.181 16.495 140.181 20.275V34H132.711Z" fill="#FEFEFE"/>
<path d="M165.353 26.17H173.003C171.788 28.96 170.033 31.12 167.918 32.56C165.848 34.045 163.373 34.81 160.808 34.81C153.653 34.81 147.578 29.005 147.578 21.58C147.578 14.6049 153.068 8.16995 160.673 8.16995C168.278 8.16995 173.858 14.2 173.858 21.805C173.858 22.795 173.768 23.2 173.678 23.785H154.958C155.408 26.7549 157.883 28.51 160.808 28.51C163.103 28.51 164.318 27.475 165.353 26.17ZM155.048 18.745H166.388C166.073 17.26 164.588 14.47 160.718 14.47C156.848 14.47 155.363 17.26 155.048 18.745Z" fill="#FEFEFE"/>
</g>
</svg>
